<svg width="45" height="28" viewBox="0 0 45 28" fill="none" xmlns="http://www.w3.org/2000/svg">
<path d="M1.08739 11.7979L8.31771 24.0672C11.4073 29.3109 19.1322 29.3109 22.2226 24.0672L29.453 11.7979C32.5418 6.55424 28.6798 0 22.4997 0H8.03986C1.8598 0 -2.00224 6.55424 1.08739 11.7979Z" fill="#003CC0"/>
<path d="M15.5483 11.7979L22.7786 24.0672C25.8683 29.3109 33.5932 29.3109 36.6836 24.0672L43.9139 11.7979C47.0027 6.55424 43.1407 0 36.9606 0H22.5008C16.3207 0 12.4587 6.55424 15.5483 11.7979Z" fill="#3180DE"/>
<path d="M30.0054 11.7979L36.9578 23.5959L43.9103 11.7979C46.9999 6.55424 43.1379 0 36.9578 0C30.7778 0 26.9157 6.55424 30.0054 11.7979Z" fill="#62C4FB"/>
</svg>
